<?xml version="1.0" standalone="no"?>
<!DOCTYPE svg PUBLIC "-//W3C//DTD SVG 20010904//EN"
 "http://www.w3.org/TR/2001/REC-SVG-20010904/DTD/svg10.dtd">
<svg version="1.0" xmlns="http://www.w3.org/2000/svg"
 width="343.000000pt" height="343.000000pt" viewBox="0 0 343.000000 343.000000"
 preserveAspectRatio="xMidYMid meet">
<metadata>
Created by potrace 1.14, written by Peter Selinger 2001-2017
</metadata>
<g transform="translate(0.000000,343.000000) scale(0.100000,-0.100000)"
fill="#000000" stroke="none">
<path d="M1512 3384 c-378 -46 -713 -209 -986 -480 -270 -269 -430 -597 -481
-987 -19 -149 -19 -255 0 -404 52 -395 214 -724 491 -995 109 -107 125 -119
247 -202 236 -160 492 -248 802 -277 446 -41 939 131 1274 447 373 352 563
833 529 1346 -15 228 -67 420 -173 633 -86 173 -175 295 -320 440 -271 272
-610 435 -995 480 -149 18 -236 18 -388 -1z m28 -774 c97 -32 171 -71 180 -94
l9 -21 0 21 c1 17 16 29 64 52 118 57 168 66 332 66 161 0 226 -13 357 -71
l57 -25 3 -72 3 -71 85 -5 85 -5 3 -764 c1 -556 -1 -768 -9 -777 -9 -11 -93
-14 -456 -14 -430 0 -446 -1 -470 -20 -14 -11 -38 -20 -53 -20 -15 0 -39 9
-53 20 -24 19 -40 20 -484 20 -252 0 -464 4 -471 8 -10 7 -12 169 -10 778 l3
769 80 3 c43 2 85 8 92 14 8 6 13 34 13 73 l0 62 60 27 c135 61 218 76 385 71
99 -2 145 -8 195 -25z"/>
<path d="M1123 2560 c-39 -10 -93 -29 -120 -42 l-48 -23 -3 -669 c-1 -369 1
-673 6 -678 4 -4 46 -1 92 7 412 75 446 77 534 44 31 -11 60 -18 66 -14 7 4
10 228 10 656 l0 649 -32 20 c-18 11 -57 27 -88 36 -30 9 -68 20 -84 25 -51
16 -254 9 -333 -11z"/>
<path d="M1930 2557 c-42 -13 -91 -32 -110 -43 l-35 -20 0 -660 c0 -581 2
-659 15 -655 8 2 41 13 74 25 57 19 61 19 175 3 64 -10 179 -28 256 -42 77
-13 148 -24 158 -25 16 0 17 37 15 681 l-3 681 -50 20 c-159 63 -354 76 -495
35z"/>
<path d="M776 2324 c-14 -14 -16 -92 -16 -709 0 -381 3 -700 6 -709 5 -14 56
-16 469 -16 l463 0 16 -23 16 -22 16 22 16 23 449 0 449 0 0 719 c0 791 5 731
-60 731 -65 0 -60 51 -60 -641 0 -537 -2 -629 -14 -629 -14 0 -162 25 -421 71
-181 32 -240 20 -331 -63 -36 -33 -44 -37 -44 -22 -1 18 -1 18 -11 1 -9 -16
-15 -13 -63 28 -29 24 -72 52 -96 60 -76 27 -137 21 -529 -55 -57 -11 -109
-20 -117 -20 -12 0 -14 98 -14 629 0 700 6 641 -70 641 -22 0 -45 -7 -54 -16z"/>
</g>
</svg>
